<<<<<<< HEAD
<?xml version="1.0" encoding="UTF-8"?>
<svg width="2458px" height="512px" viewBox="0 0 2458 512" version="1.1" xmlns="http://www.w3.org/2000/svg" xmlns:xlink="http://www.w3.org/1999/xlink">
    <title>logo-dark</title>
    <g id="Page-1" stroke="none" stroke-width="1" fill="none" fill-rule="evenodd">
        <g id="logo" fill-rule="nonzero">
            <g id="woot-log">
                <circle id="Oval" fill="#47A7F6" cx="256" cy="256" r="256"></circle>
                <path d="M362.807947,368.807947 L244.122956,368.807947 C178.699407,368.807947 125.456954,315.561812 125.456954,250.12177 C125.456954,184.703089 178.699407,131.456954 244.124143,131.456954 C309.565494,131.456954 362.807947,184.703089 362.807947,250.12177 L362.807947,368.807947 Z" id="Fill-1" stroke="#FFFFFF" stroke-width="6" fill="#FFFFFF"></path>
            </g>
            <path d="M772.982159,256.84801 C768.65756,250.216959 762.170758,244.66714 753.52156,240.198388 C744.872362,235.729635 735.64669,233.495293 725.844265,233.495293 C715.176921,233.495293 705.735022,235.513409 697.518283,239.549701 C689.301545,243.585993 682.310215,248.991661 676.544083,255.766866 C670.777951,262.542071 666.381342,270.398308 663.354122,279.335813 C660.326903,288.273317 658.813316,297.643141 658.813316,307.445566 C658.813316,317.24799 660.326903,326.617814 663.354122,335.555319 C666.381342,344.492823 670.777951,352.34906 676.544083,359.124265 C682.310215,365.89947 689.373621,371.305138 697.734512,375.34143 C706.095404,379.377723 715.609379,381.395839 726.276723,381.395839 C736.655761,381.395839 746.09766,379.377723 754.602705,375.34143 C763.10775,371.305138 770.09908,365.827395 775.576905,358.908036 L802.821743,383.558127 C794.172545,393.648858 783.361209,401.505095 770.387412,407.127074 C757.413615,412.749053 742.710199,415.56 726.276723,415.56 C710.41986,415.56 695.78852,412.96528 682.382263,407.775761 C668.976006,402.586242 657.371839,395.306609 647.569415,385.936645 C637.76699,376.566681 630.054905,365.250816 624.432926,351.988713 C618.810947,338.726609 616,323.879042 616,307.445566 C616,291.300396 618.738872,276.59698 624.216697,263.334876 C629.694522,250.072773 637.334533,238.684833 647.136957,229.170715 C656.939381,219.656597 668.543548,212.304889 681.949805,207.115371 C695.356062,201.925852 709.843251,199.331131 725.411808,199.331131 C739.827138,199.331131 754.170176,202.214154 768.441352,207.980286 C782.712529,213.746418 794.028393,222.107184 802.389285,233.062835 L772.982159,256.84801 Z M885.42117,236.090039 C890.322383,225.999308 898.683149,217.35024 910.503719,210.142575 C922.32429,202.93491 935.586194,199.331131 950.289831,199.331131 C963.551935,199.331131 974.939874,201.565474 984.453992,206.034226 C993.96811,210.502979 1001.89642,216.485251 1008.23917,223.981222 C1014.58191,231.477194 1019.26682,240.270413 1022.29404,250.361144 C1025.32126,260.451875 1026.83485,271.263211 1026.83485,282.795475 L1026.83485,409.938049 L986.183823,409.938049 L986.183823,296.634122 C986.183823,288.273231 985.535143,280.344918 984.237763,272.848947 C982.940384,265.352975 980.56189,258.722023 977.102211,252.955891 C973.642549,247.189759 968.957619,242.576922 963.047334,239.117243 C957.137049,235.657564 949.424963,233.92775 939.910845,233.92775 C923.765676,233.92775 910.503771,240.054174 900.124733,252.307204 C889.745696,264.560235 884.556255,280.921389 884.556255,301.391157 L884.556255,409.938049 L843.905228,409.938049 L843.905228,83 L884.556255,83 L884.556255,236.090039 L885.42117,236.090039 Z M1223.17066,277.173524 C1223.17066,261.893274 1218.55783,250.57741 1209.33202,243.225592 C1200.1062,235.873773 1187.85336,232.197919 1172.57311,232.197919 C1161.04084,232.197919 1150.15743,234.432262 1139.92255,238.901014 C1129.68766,243.369767 1121.11067,249.063737 1114.19131,255.983095 L1092.56843,230.035631 C1102.65916,220.521513 1114.98408,213.025654 1129.54356,207.547828 C1144.10305,202.070003 1159.74344,199.331131 1176.46523,199.331131 C1191.16886,199.331131 1203.92624,201.421323 1214.73774,205.601769 C1225.54923,209.782214 1234.41453,215.476184 1241.33389,222.683849 C1248.25325,229.891514 1253.4427,238.396431 1256.90237,248.198856 C1260.36205,258.00128 1262.09186,268.524313 1262.09186,279.76827 L1262.09186,369.287022 C1262.09186,376.206381 1262.30809,383.486013 1262.74055,391.126138 C1263.17301,398.766263 1263.96584,405.036837 1265.11906,409.938049 L1228.36016,409.938049 C1226.0537,400.135625 1224.90049,390.333348 1224.90049,380.530923 L1223.60312,380.530923 C1216.10715,391.486574 1206.66525,399.991491 1195.27714,406.04593 C1183.88903,412.100368 1170.4109,415.127542 1154.84234,415.127542 C1146.76976,415.127542 1138.33691,414.046409 1129.54356,411.884109 C1120.75021,409.72181 1112.74982,406.190107 1105.54216,401.288895 C1098.33449,396.387682 1092.35222,389.900881 1087.59516,381.828296 C1082.8381,373.755712 1080.45961,363.809283 1080.45961,351.988713 C1080.45961,336.420156 1084.63999,324.095234 1093.00088,315.013576 C1101.36178,305.931918 1112.31726,299.012664 1125.86767,294.255605 C1139.41808,289.498546 1154.6981,286.399296 1171.70819,284.957763 C1188.71828,283.51623 1205.87227,282.795475 1223.17066,282.795475 L1223.17066,277.173524 Z M1213.22414,312.202601 C1203.1334,312.202601 1192.68245,312.635054 1181.87095,313.499974 C1171.05945,314.364894 1161.25717,316.094707 1152.46382,318.689467 C1143.67047,321.284226 1136.39084,325.176307 1130.62471,330.365826 C1124.85858,335.555345 1121.97555,342.474599 1121.97555,351.123797 C1121.97555,357.178236 1123.20084,362.223526 1125.65144,366.259818 C1128.10205,370.29611 1131.34545,373.611587 1135.38174,376.206346 C1139.41803,378.801105 1143.88672,380.602995 1148.78793,381.612068 C1153.68914,382.621141 1158.73443,383.12567 1163.92395,383.12567 C1182.95219,383.12567 1197.58353,377.4317 1207.81841,366.043589 C1218.0533,354.655478 1223.17066,340.31244 1223.17066,323.014044 L1223.17066,312.202601 L1213.22414,312.202601 Z M1425.99334,238.252328 L1371.50367,238.252328 L1371.50367,345.069389 C1371.50367,357.466573 1373.81009,366.331868 1378.42299,371.66554 C1383.0359,376.999212 1390.3876,379.666008 1400.47834,379.666008 C1404.22632,379.666008 1408.26255,379.233554 1412.58715,378.368635 C1416.91175,377.503715 1420.80383,376.206355 1424.26351,374.476515 L1425.56088,407.775761 C1420.65967,409.5056 1415.254,410.875036 1409.34372,411.884109 C1403.43343,412.893182 1397.30701,413.397711 1390.96427,413.397711 C1371.64772,413.397711 1356.87223,408.064119 1346.63735,397.396775 C1336.40246,386.729431 1331.2851,370.728655 1331.2851,349.393966 L1331.2851,238.252328 L1291.93144,238.252328 L1291.93144,204.953082 L1331.2851,204.953082 L1331.2851,146.13883 L1371.50367,146.13883 L1371.50367,204.953082 L1425.99334,204.953082 L1425.99334,238.252328 Z M1506.07776,204.953082 L1552.35074,361.502783 L1553.21566,361.502783 L1602.08338,204.953082 L1644.8967,204.953082 L1694.62934,361.502783 L1695.49425,361.502783 L1741.76723,204.953082 L1784.58055,204.953082 L1716.68468,409.938049 L1674.30382,409.938049 L1623.70627,255.983095 L1622.84135,255.983095 L1572.67625,409.938049 L1530.2954,409.938049 L1461.96707,204.953082 L1506.07776,204.953082 Z M2032.81129,307.013108 C2032.81129,322.869971 2030.00034,337.429236 2024.37836,350.691339 C2018.75638,363.953443 2010.97222,375.413458 2001.02564,385.07173 C1991.07907,394.730001 1979.33075,402.22586 1965.78034,407.559532 C1952.22993,412.893204 1937.67066,415.56 1922.10211,415.56 C1906.53355,415.56 1891.97429,412.893204 1878.42388,407.559532 C1864.87346,402.22586 1853.19722,394.730001 1843.3948,385.07173 C1833.59237,375.413458 1825.88029,363.953443 1820.25831,350.691339 C1814.63633,337.429236 1811.82538,322.869971 1811.82538,307.013108 C1811.82538,291.156245 1814.63633,276.669056 1820.25831,263.551105 C1825.88029,250.433155 1833.59237,239.117291 1843.3948,229.603173 C1853.19722,220.089055 1864.87346,212.665272 1878.42388,207.331599 C1891.97429,201.997927 1906.53355,199.331131 1922.10211,199.331131 C1937.67066,199.331131 1952.22993,201.997927 1965.78034,207.331599 C1979.33075,212.665272 1991.07907,220.089055 2001.02564,229.603173 C2010.97222,239.117291 2018.75638,250.433155 2024.37836,263.551105 C2030.00034,276.669056 2032.81129,291.156245 2032.81129,307.013108 Z M1990.43043,307.013108 C1990.43043,297.210684 1988.91683,287.84086 1985.88962,278.903355 C1982.8624,269.96585 1978.46579,262.109613 1972.69966,255.334408 C1966.93353,248.559203 1959.79805,243.153536 1951.293,239.117243 C1942.78796,235.080951 1933.05776,233.062835 1922.10211,233.062835 C1911.14646,233.062835 1901.41625,235.080951 1892.91121,239.117243 C1884.40616,243.153536 1877.27068,248.559203 1871.50455,255.334408 C1865.73842,262.109613 1861.34181,269.96585 1858.31459,278.903355 C1855.28737,287.84086 1853.77378,297.210684 1853.77378,307.013108 C1853.77378,316.815532 1855.28737,326.185356 1858.31459,335.122861 C1861.34181,344.060365 1865.73842,351.988678 1871.50455,358.908036 C1877.27068,365.827395 1884.40616,371.305138 1892.91121,375.34143 C1901.41625,379.377723 1911.14646,381.395839 1922.10211,381.395839 C1933.05776,381.395839 1942.78796,379.377723 1951.293,375.34143 C1959.79805,371.305138 1966.93353,365.827395 1972.69966,358.908036 C1978.46579,351.988678 1982.8624,344.060365 1985.88962,335.122861 C1988.91683,326.185356 1990.43043,316.815532 1990.43043,307.013108 Z M2296.61051,307.013108 C2296.61051,322.869971 2293.79956,337.429236 2288.17758,350.691339 C2282.5556,363.953443 2274.77144,375.413458 2264.82486,385.07173 C2254.87829,394.730001 2243.12997,402.22586 2229.57956,407.559532 C2216.02915,412.893204 2201.46988,415.56 2185.90133,415.56 C2170.33277,415.56 2155.77351,412.893204 2142.22309,407.559532 C2128.67268,402.22586 2116.99644,394.730001 2107.19402,385.07173 C2097.39159,375.413458 2089.67951,363.953443 2084.05753,350.691339 C2078.43555,337.429236 2075.6246,322.869971 2075.6246,307.013108 C2075.6246,291.156245 2078.43555,276.669056 2084.05753,263.551105 C2089.67951,250.433155 2097.39159,239.117291 2107.19402,229.603173 C2116.99644,220.089055 2128.67268,212.665272 2142.22309,207.331599 C2155.77351,201.997927 2170.33277,199.331131 2185.90133,199.331131 C2201.46988,199.331131 2216.02915,201.997927 2229.57956,207.331599 C2243.12997,212.665272 2254.87829,220.089055 2264.82486,229.603173 C2274.77144,239.117291 2282.5556,250.433155 2288.17758,263.551105 C2293.79956,276.669056 2296.61051,291.156245 2296.61051,307.013108 Z M2254.22965,307.013108 C2254.22965,297.210684 2252.71605,287.84086 2249.68884,278.903355 C2246.66162,269.96585 2242.26501,262.109613 2236.49888,255.334408 C2230.73275,248.559203 2223.59727,243.153536 2215.09222,239.117243 C2206.58718,235.080951 2196.85698,233.062835 2185.90133,233.062835 C2174.94568,233.062835 2165.21547,235.080951 2156.71043,239.117243 C2148.20538,243.153536 2141.0699,248.559203 2135.30377,255.334408 C2129.53764,262.109613 2125.14103,269.96585 2122.11381,278.903355 C2119.08659,287.84086 2117.573,297.210684 2117.573,307.013108 C2117.573,316.815532 2119.08659,326.185356 2122.11381,335.122861 C2125.14103,344.060365 2129.53764,351.988678 2135.30377,358.908036 C2141.0699,365.827395 2148.20538,371.305138 2156.71043,375.34143 C2165.21547,379.377723 2174.94568,381.395839 2185.90133,381.395839 C2196.85698,381.395839 2206.58718,379.377723 2215.09222,375.34143 C2223.59727,371.305138 2230.73275,365.827395 2236.49888,358.908036 C2242.26501,351.988678 2246.66162,344.060365 2249.68884,335.122861 C2252.71605,326.185356 2254.22965,316.815532 2254.22965,307.013108 Z M2453.16021,238.252328 L2398.67053,238.252328 L2398.67053,345.069389 C2398.67053,357.466573 2400.97695,366.331868 2405.58986,371.66554 C2410.20276,376.999212 2417.55447,379.666008 2427.6452,379.666008 C2431.39319,379.666008 2435.42942,379.233554 2439.75402,378.368635 C2444.07862,377.503715 2447.9707,376.206355 2451.43038,374.476515 L2452.72775,407.775761 C2447.82654,409.5056 2442.42087,410.875036 2436.51059,411.884109 C2430.6003,412.893182 2424.47388,413.397711 2418.13113,413.397711 C2398.81459,413.397711 2384.0391,408.064119 2373.80421,397.396775 C2363.56933,386.729431 2358.45196,370.728655 2358.45196,349.393966 L2358.45196,238.252328 L2319.09831,238.252328 L2319.09831,204.953082 L2358.45196,204.953082 L2358.45196,146.13883 L2398.67053,146.13883 L2398.67053,204.953082 L2453.16021,204.953082 L2453.16021,238.252328 Z" id="chatwoot" stroke="#EEEEEE" stroke-width="8" fill="#EDEDED"></path>
        </g>
    </g>
=======
<svg width="2559" height="581" viewBox="0 0 2559 581" fill="none" xmlns="http://www.w3.org/2000/svg">
<path d="M256 546C397.385 546 512 431.385 512 290C512 148.615 397.385 34 256 34C114.615 34 0 148.615 0 290C0 431.385 114.615 546 256 546Z" fill="#2781F6"/>
<path d="M367 410H247.99C182.388 410 129 356.608 129 290.989C129 225.392 182.388 172 247.992 172C313.612 172 367 225.392 367 290.989V410Z" fill="white" stroke="white" stroke-width="6"/>
<path d="M707.875 470.625C683.5 470.625 662.016 465.156 643.422 454.219C624.984 443.281 610.609 428.125 600.297 408.75C590.141 389.375 585.062 366.953 585.062 341.484C585.062 316.016 590.141 293.516 600.297 273.984C610.609 254.453 624.984 239.219 643.422 228.281C662.016 217.344 683.5 211.875 707.875 211.875C723.812 211.875 738.5 214.297 751.938 219.141C765.531 223.828 777.328 230.469 787.328 239.062C797.484 247.656 805.609 257.812 811.703 269.531C817.797 281.25 821.469 294.219 822.719 308.438H759.438C758.5 301.875 756.625 296.016 753.812 290.859C751.156 285.547 747.641 281.016 743.266 277.266C739.047 273.359 734.047 270.391 728.266 268.359C722.641 266.172 716.156 265.078 708.812 265.078C696.781 265.078 686.391 268.203 677.641 274.453C668.891 280.703 662.172 289.531 657.484 300.938C652.953 312.344 650.688 325.859 650.688 341.484C650.688 356.953 652.953 370.391 657.484 381.797C662.172 393.203 668.812 402.031 677.406 408.281C686.156 414.375 696.625 417.422 708.812 417.422C716.156 417.422 722.641 416.406 728.266 414.375C733.891 412.344 738.734 409.453 742.797 405.703C747.016 401.797 750.453 397.188 753.109 391.875C755.766 386.406 757.719 380.312 758.969 373.594H822.719C821.781 387.656 818.266 400.625 812.172 412.5C806.234 424.219 798.188 434.453 788.031 443.203C777.875 451.797 766 458.516 752.406 463.359C738.812 468.203 723.969 470.625 707.875 470.625ZM911.209 326.484V465H846.053V115.781H911.209V281.25H898.319C906.288 259.375 917.459 242.422 931.834 230.391C946.366 218.359 964.725 212.344 986.913 212.344C1004.41 212.344 1019.65 216.172 1032.62 223.828C1045.74 231.328 1055.98 242.344 1063.32 256.875C1070.66 271.406 1074.33 289.141 1074.33 310.078V465H1009.18V321.562C1009.18 304.219 1005.04 291.094 996.756 282.188C988.631 273.281 977.069 268.828 962.069 268.828C952.069 268.828 943.241 270.859 935.584 274.922C927.928 278.984 921.913 285.234 917.538 293.672C913.319 302.109 911.209 313.047 911.209 326.484ZM1185.79 468.984C1169.39 468.984 1154.78 466.25 1141.97 460.781C1129.15 455.312 1119 447.109 1111.5 436.172C1104.15 425.234 1100.48 411.562 1100.48 395.156C1100.48 381.094 1103.06 369.453 1108.22 360.234C1113.53 350.859 1120.64 343.438 1129.54 337.969C1138.61 332.344 1149 328.125 1160.72 325.312C1172.43 322.344 1184.62 320.156 1197.28 318.75C1212.59 317.188 1224.7 315.781 1233.61 314.531C1242.51 313.125 1248.92 311.094 1252.83 308.438C1256.73 305.781 1258.68 301.719 1258.68 296.25V294.609C1258.68 288.047 1256.97 282.344 1253.53 277.5C1250.09 272.5 1245.25 268.594 1239 265.781C1232.75 262.969 1225.17 261.562 1216.26 261.562C1207.36 261.562 1199.47 262.969 1192.59 265.781C1185.87 268.594 1180.48 272.578 1176.42 277.734C1172.51 282.734 1170.25 288.594 1169.62 295.312H1107.98C1109.08 278.438 1114.08 263.828 1122.98 251.484C1132.04 239.141 1144.54 229.531 1160.48 222.656C1176.58 215.781 1195.72 212.344 1217.9 212.344C1234.47 212.344 1249.23 214.297 1262.2 218.203C1275.33 222.109 1286.34 227.734 1295.25 235.078C1304.31 242.422 1311.18 251.328 1315.87 261.797C1320.56 272.109 1322.9 283.75 1322.9 296.719V465H1259.39V430.078H1258.45C1254.23 437.891 1248.92 444.766 1242.51 450.703C1236.26 456.484 1228.45 461.016 1219.08 464.297C1209.86 467.422 1198.76 468.984 1185.79 468.984ZM1203.14 422.812C1214.86 422.812 1224.86 420.703 1233.14 416.484C1241.58 412.109 1247.98 406.25 1252.36 398.906C1256.89 391.562 1259.15 383.281 1259.15 374.062V348.281C1257.12 349.531 1254.39 350.703 1250.95 351.797C1247.67 352.734 1243.68 353.672 1239 354.609C1234.47 355.547 1229.47 356.484 1224 357.422C1218.68 358.359 1213.14 359.219 1207.36 360C1199.23 361.25 1191.81 363.203 1185.09 365.859C1178.37 368.516 1172.98 372.109 1168.92 376.641C1165.01 381.016 1163.06 386.719 1163.06 393.75C1163.06 399.688 1164.7 404.922 1167.98 409.453C1171.42 413.828 1176.11 417.188 1182.04 419.531C1187.98 421.719 1195.01 422.812 1203.14 422.812ZM1496.24 217.5V269.062H1337.57V217.5H1496.24ZM1380.69 150H1445.61V390.703C1445.61 399.297 1447.33 405.234 1450.77 408.516C1454.21 411.797 1460.69 413.438 1470.22 413.438C1474.13 413.438 1478.66 413.438 1483.82 413.438C1489.13 413.438 1493.27 413.438 1496.24 413.438V465C1492.02 465 1486.32 465 1479.13 465C1472.1 465 1464.99 465 1457.8 465C1431.39 465 1411.94 459.766 1399.44 449.297C1386.94 438.828 1380.69 422.656 1380.69 400.781V150ZM1584.03 465L1507.62 217.5H1575.82L1599.73 307.031C1604.26 324.688 1608.63 342.891 1612.85 361.641C1617.07 380.391 1621.29 398.828 1625.51 416.953H1616.6C1621.13 398.828 1625.67 380.391 1630.2 361.641C1634.88 342.891 1639.57 324.688 1644.26 307.031L1669.1 217.5H1728.17L1752.54 307.031C1757.38 324.688 1762.07 342.891 1766.6 361.641C1771.13 380.391 1775.67 398.828 1780.2 416.953H1771.06C1775.43 398.828 1779.65 380.391 1783.71 361.641C1787.93 342.891 1792.23 324.688 1796.6 307.031L1820.51 217.5H1889.42L1813.01 465H1745.74L1716.45 364.688C1713.63 354.844 1710.9 344.844 1708.24 334.688C1705.59 324.375 1702.93 314.062 1700.28 303.75C1697.78 293.281 1695.12 282.969 1692.31 272.812H1704.96C1702.31 282.969 1699.57 293.281 1696.76 303.75C1694.1 314.062 1691.45 324.375 1688.79 334.688C1686.29 344.844 1683.56 354.844 1680.59 364.688L1650.82 465H1584.03ZM2009.78 470.625C1985.09 470.625 1963.38 465.234 1944.62 454.453C1926.03 443.672 1911.5 428.594 1901.03 409.219C1890.72 389.844 1885.56 367.266 1885.56 341.484C1885.56 315.703 1890.72 293.125 1901.03 273.75C1911.5 254.219 1926.03 239.062 1944.62 228.281C1963.38 217.344 1985.09 211.875 2009.78 211.875C2034.62 211.875 2056.34 217.344 2074.94 228.281C2093.53 239.062 2107.98 254.219 2118.3 273.75C2128.77 293.125 2134 315.703 2134 341.484C2134 367.266 2128.77 389.844 2118.3 409.219C2107.98 428.594 2093.53 443.672 2074.94 454.453C2056.34 465.234 2034.62 470.625 2009.78 470.625ZM2009.78 417.188C2021.66 417.188 2031.97 414.219 2040.72 408.281C2049.47 402.188 2056.27 393.438 2061.11 382.031C2065.95 370.625 2068.38 357.109 2068.38 341.484C2068.38 325.547 2065.95 311.953 2061.11 300.703C2056.27 289.297 2049.47 280.547 2040.72 274.453C2031.97 268.359 2021.66 265.312 2009.78 265.312C1998.06 265.312 1987.75 268.359 1978.84 274.453C1970.09 280.547 1963.3 289.297 1958.45 300.703C1953.61 311.953 1951.19 325.547 1951.19 341.484C1951.19 357.266 1953.61 370.859 1958.45 382.266C1963.3 393.516 1970.09 402.188 1978.84 408.281C1987.75 414.219 1998.06 417.188 2009.78 417.188ZM2271.94 470.625C2247.26 470.625 2225.54 465.234 2206.79 454.453C2188.19 443.672 2173.66 428.594 2163.19 409.219C2152.88 389.844 2147.72 367.266 2147.72 341.484C2147.72 315.703 2152.88 293.125 2163.19 273.75C2173.66 254.219 2188.19 239.062 2206.79 228.281C2225.54 217.344 2247.26 211.875 2271.94 211.875C2296.79 211.875 2318.51 217.344 2337.1 228.281C2355.69 239.062 2370.15 254.219 2380.46 273.75C2390.93 293.125 2396.16 315.703 2396.16 341.484C2396.16 367.266 2390.93 389.844 2380.46 409.219C2370.15 428.594 2355.69 443.672 2337.1 454.453C2318.51 465.234 2296.79 470.625 2271.94 470.625ZM2271.94 417.188C2283.82 417.188 2294.13 414.219 2302.88 408.281C2311.63 402.188 2318.43 393.438 2323.27 382.031C2328.12 370.625 2330.54 357.109 2330.54 341.484C2330.54 325.547 2328.12 311.953 2323.27 300.703C2318.43 289.297 2311.63 280.547 2302.88 274.453C2294.13 268.359 2283.82 265.312 2271.94 265.312C2260.22 265.312 2249.91 268.359 2241.01 274.453C2232.26 280.547 2225.46 289.297 2220.62 300.703C2215.77 311.953 2213.35 325.547 2213.35 341.484C2213.35 357.266 2215.77 370.859 2220.62 382.266C2225.46 393.516 2232.26 402.188 2241.01 408.281C2249.91 414.219 2260.22 417.188 2271.94 417.188ZM2558.48 217.5V269.062H2399.81V217.5H2558.48ZM2442.93 150H2507.86V390.703C2507.86 399.297 2509.57 405.234 2513.01 408.516C2516.45 411.797 2522.93 413.438 2532.47 413.438C2536.37 413.438 2540.9 413.438 2546.06 413.438C2551.37 413.438 2555.51 413.438 2558.48 413.438V465C2554.26 465 2548.56 465 2541.37 465C2534.34 465 2527.23 465 2520.04 465C2493.64 465 2474.18 459.766 2461.68 449.297C2449.18 438.828 2442.93 422.656 2442.93 400.781V150Z" fill="white"/>
>>>>>>> upstream/develop
</svg>
